<svg version="1.1" viewBox="0.0 0.0 256.7742782152231 256.3228346456693" fill="none" stroke="none" stroke-linecap="square" stroke-miterlimit="10" xmlns:xlink="http://www.w3.org/1999/xlink" xmlns="http://www.w3.org/2000/svg"><clipPath id="p.0"><path d="m0 0l256.7743 0l0 256.32285l-256.7743 0l0 -256.32285z" clip-rule="nonzero"/></clipPath><g clip-path="url(#p.0)"><path fill="#000000" fill-opacity="0.0" d="m0 0l256.7743 0l0 256.32285l-256.7743 0z" fill-rule="evenodd"/><path fill="#000000" d="m6.488446 99.31472l121.51155 -92.82653l121.51155 92.82653l-46.413284 150.19647l-150.19653 0z" fill-rule="evenodd"/><path stroke="#ffffff" stroke-width="1.0" stroke-linejoin="round" stroke-linecap="butt" d="m6.488446 99.31472l121.51155 -92.82653l121.51155 92.82653l-46.413284 150.19647l-150.19653 0z" fill-rule="evenodd"/><path fill="#000000" fill-opacity="0.0" d="m-2.9658792 13.375336l256.0 0l0 256.0l-256.0 0z" fill-rule="evenodd"/><path fill="#ffffff" d="m119.83254 205.68158q-19.234375 0 -30.421875 -10.65625q-11.171875 -10.65625 -11.171875 -28.6875l21.65625 0q0 9.53125 5.375 14.90625q5.375 5.375 14.5625 5.375q9.187508 0 14.562508 -5.28125q5.375 -5.296875 5.375 -14.828125l0 -69.15625l-29.468758 0l0 -20.109375l51.125008 0l0 89.265625q0 18.203125 -11.1875 28.6875q-11.171875 10.484375 -30.406258 10.484375z" fill-rule="nonzero"/></g></svg>