<svg version="1.1" viewBox="0.0 0.0 256.7742782152231 256.3228346456693" fill="none" stroke="none" stroke-linecap="square" stroke-miterlimit="10" xmlns:xlink="http://www.w3.org/1999/xlink" xmlns="http://www.w3.org/2000/svg"><clipPath id="p.0"><path d="m0 0l256.7743 0l0 256.32285l-256.7743 0l0 -256.32285z" clip-rule="nonzero"/></clipPath><g clip-path="url(#p.0)"><path fill="#000000" fill-opacity="0.0" d="m0 0l256.7743 0l0 256.32285l-256.7743 0z" fill-rule="evenodd"/><path fill="#000000" d="m6.488446 99.31472l121.51155 -92.82653l121.51155 92.82653l-46.413284 150.19647l-150.19653 0z" fill-rule="evenodd"/><path stroke="#ffffff" stroke-width="1.0" stroke-linejoin="round" stroke-linecap="butt" d="m6.488446 99.31472l121.51155 -92.82653l121.51155 92.82653l-46.413284 150.19647l-150.19653 0z" fill-rule="evenodd"/><path fill="#000000" fill-opacity="0.0" d="m-11.099737 18.656176l256.0 0l0 256.0l-256.0 0z" fill-rule="evenodd"/><path fill="#ffffff" d="m109.697136 235.69681q-26.640625 0 -42.125 -14.75q-15.46875 -14.765625 -15.46875 -39.734375l30.0 0q0 13.203125 7.4375 20.640625q7.4375 7.4375 20.15625 7.4375q12.71875 0 20.156258 -7.3125q7.453125 -7.328125 7.453125 -20.515625l0 -95.765625l-40.812508 0l0 -27.84375l70.81251 0l0 123.609375q0 25.1875 -15.484375 39.71875q-15.484375 14.515625 -42.125008 14.515625z" fill-rule="nonzero"/></g></svg>