<svg version="1.1" viewBox="0.0 0.0 256.7742782152231 256.3228346456693" fill="none" stroke="none" stroke-linecap="square" stroke-miterlimit="10" xmlns:xlink="http://www.w3.org/1999/xlink" xmlns="http://www.w3.org/2000/svg"><clipPath id="p.0"><path d="m0 0l256.7743 0l0 256.32285l-256.7743 0l0 -256.32285z" clip-rule="nonzero"/></clipPath><g clip-path="url(#p.0)"><path fill="#000000" fill-opacity="0.0" d="m0 0l256.7743 0l0 256.32285l-256.7743 0z" fill-rule="evenodd"/><path fill="#000000" d="m0 0l256.0 0l0 256.31497l-256.0 0z" fill-rule="evenodd"/><path stroke="#ffffff" stroke-width="1.0" stroke-linejoin="round" stroke-linecap="butt" d="m0 0l256.0 0l0 256.31497l-256.0 0z" fill-rule="evenodd"/><path fill="#000000" fill-opacity="0.0" d="m0.3871391 0.16142493l256.0 0l0 256.0l-256.0 0z" fill-rule="evenodd"/><path fill="#ffffff" d="m63.21836 192.46767q-19.234375 0 -28.6875 -10.65625q-9.453125 -10.65625 -6.5 -28.6875l21.671875 0q-1.5625 9.53125 2.84375 14.90625q4.421875 5.375 13.796875 5.375q9.171875 0 15.328125 -5.28125q6.15625 -5.296875 7.71875 -14.828125l10.921875 -69.15625l-29.296875 0l3.125 -20.109375l51.125 0l-14.203125 89.265625q-1.921875 11.953125 -8.421875 20.796875q-6.484375 8.84375 -16.546875 13.609375q-10.046875 4.765625 -22.875 4.765625zm70.71566 -1.90625l20.109375 -126.53125l21.65625 0l-8.140625 51.140625l14.5625 0l32.234375 -51.140625l23.75 0l-38.484375 61.703125l19.765625 64.828125l-23.40625 0l-15.9375 -55.640625l-15.609375 0l-8.828125 55.640625l-21.671875 0z" fill-rule="nonzero"/></g></svg>