<svg version="1.1" viewBox="0.0 0.0 701.6692913385826 701.7611548556431" fill="none" stroke="none" stroke-linecap="square" stroke-miterlimit="10" xmlns:xlink="http://www.w3.org/1999/xlink" xmlns="http://www.w3.org/2000/svg"><clipPath id="p.0"><path d="m0 0l701.6693 0l0 701.76117l-701.6693 0l0 -701.76117z" clip-rule="nonzero"/></clipPath><g clip-path="url(#p.0)"><path fill="#000000" fill-opacity="0.0" d="m0 0l701.6693 0l0 701.76117l-701.6693 0z" fill-rule="evenodd"/><path fill="#000000" fill-opacity="0.0" d="m82.708664 350.8793l0 0c0 -148.28194 120.04408 -268.4882 268.12598 -268.4882l0 0c71.11142 0 139.3103 28.287071 189.59369 78.63837c50.283386 50.351303 78.53229 118.642334 78.53229 189.84982l0 0c0 148.28192 -120.0441 268.4882 -268.12598 268.4882l0 0c-148.08191 0 -268.12598 -120.20627 -268.12598 -268.4882z" fill-rule="evenodd"/><path stroke="#000000" stroke-width="24.0" stroke-linejoin="round" stroke-linecap="butt" d="m82.708664 350.8793l0 0c0 -148.28194 120.04408 -268.4882 268.12598 -268.4882l0 0c71.11142 0 139.3103 28.287071 189.59369 78.63837c50.283386 50.351303 78.53229 118.642334 78.53229 189.84982l0 0c0 148.28192 -120.0441 268.4882 -268.12598 268.4882l0 0c-148.08191 0 -268.12598 -120.20627 -268.12598 -268.4882z" fill-rule="evenodd"/><path fill="#000000" fill-opacity="0.0" d="m158.83464 350.879l0 0c0 -106.03868 85.961334 -192.00002 192.00002 -192.00002l0 0c50.92157 0 99.75751 20.228516 135.7645 56.235504c36.00699 36.006973 56.235504 84.84294 56.235504 135.76451l0 0c0 106.038666 -85.961334 191.99997 -192.0 191.99997l0 0c-106.03868 0 -192.00002 -85.9613 -192.00002 -191.99997z" fill-rule="evenodd"/><path stroke="#000000" stroke-width="24.0" stroke-linejoin="round" stroke-linecap="butt" d="m158.83464 350.879l0 0c0 -106.03868 85.961334 -192.00002 192.00002 -192.00002l0 0c50.92157 0 99.75751 20.228516 135.7645 56.235504c36.00699 36.006973 56.235504 84.84294 56.235504 135.76451l0 0c0 106.038666 -85.961334 191.99997 -192.0 191.99997l0 0c-106.03868 0 -192.00002 -85.9613 -192.00002 -191.99997z" fill-rule="evenodd"/><path fill="#000000" fill-opacity="0.0" d="m350.83466 0l0 235.1181" fill-rule="evenodd"/><path stroke="#000000" stroke-width="24.0" stroke-linejoin="round" stroke-linecap="butt" d="m350.83466 0l0 235.1181" fill-rule="evenodd"/><path fill="#000000" fill-opacity="0.0" d="m350.83466 466.64304l0 235.11813" fill-rule="evenodd"/><path stroke="#000000" stroke-width="24.0" stroke-linejoin="round" stroke-linecap="butt" d="m350.83466 466.64304l0 235.11813" fill-rule="evenodd"/><path fill="#000000" fill-opacity="0.0" d="m701.6693 350.88058l-235.11813 0" fill-rule="evenodd"/><path stroke="#000000" stroke-width="24.0" stroke-linejoin="round" stroke-linecap="butt" d="m701.6693 350.88058l-235.11813 0" fill-rule="evenodd"/><path fill="#000000" fill-opacity="0.0" d="m235.1181 350.87796l-235.1181 0" fill-rule="evenodd"/><path stroke="#000000" stroke-width="24.0" stroke-linejoin="round" stroke-linecap="butt" d="m235.1181 350.87796l-235.1181 0" fill-rule="evenodd"/></g></svg>