<svg version="1.1" viewBox="0.0 0.0 960.0 960.0" fill="none" stroke="none" stroke-linecap="square" stroke-miterlimit="10" xmlns:xlink="http://www.w3.org/1999/xlink" xmlns="http://www.w3.org/2000/svg"><clipPath id="p.0"><path d="m0 0l960.0 0l0 960.0l-960.0 0l0 -960.0z" clip-rule="nonzero"/></clipPath><g clip-path="url(#p.0)"><path fill="#000000" fill-opacity="0.0" d="m0 0l960.0 0l0 960.0l-960.0 0z" fill-rule="evenodd"/><path fill="#ffffff" d="m0.018372703 1.2230971l960.0 0l0 960.0l-960.0 0z" fill-rule="evenodd"/><path stroke="#000000" stroke-width="1.0" stroke-linejoin="round" stroke-linecap="butt" d="m0.018372703 1.2230971l960.0 0l0 960.0l-960.0 0z" fill-rule="evenodd"/><path fill="#000000" d="m29.355284 373.61612l450.6447 -344.26178l450.6447 344.26178l-172.13098 557.0272l-557.02747 0z" fill-rule="evenodd"/><path stroke="#ffffff" stroke-width="1.0" stroke-linejoin="round" stroke-linecap="butt" d="m29.355284 373.61612l450.6447 -344.26178l450.6447 344.26178l-172.13098 557.0272l-557.02747 0z" fill-rule="evenodd"/><path fill="#000000" fill-opacity="0.0" d="m131.77953 252.46457l696.4409 0l0 504.189l-696.4409 0z" fill-rule="evenodd"/><path fill="#ffffff" d="m304.00317 702.4184q-59.20314 0 -93.60939 -32.796875q-34.390625 -32.796875 -34.390625 -88.265625l66.671875 0q0 29.34375 16.531265 45.875q16.53125 16.53125 44.796875 16.53125q28.265625 0 44.796875 -16.265625q16.53125 -16.265625 16.53125 -45.609375l0 -212.79684l-90.65625 0l0 -61.859375l157.32812 0l0 274.65622q0 56.0 -34.40625 88.265625q-34.390625 32.265625 -93.59375 32.265625zm216.52808 -5.859375l0 -389.3281l66.671875 0l0 157.32812l46.390625 0l73.078125 -157.32812l72.53125 0l-86.9375 186.65625l91.203125 202.67184l-74.140625 0l-76.796875 -171.20312l-45.328125 0l0 171.20312l-66.671875 0z" fill-rule="nonzero"/></g></svg>